<?xml version="1.0" standalone="no"?>
<!DOCTYPE svg PUBLIC "-//W3C//DTD SVG 20010904//EN"
 "http://www.w3.org/TR/2001/REC-SVG-20010904/DTD/svg10.dtd">
<svg version="1.0" xmlns="http://www.w3.org/2000/svg"
 width="1145.000000pt" height="431.000000pt" viewBox="0 0 1145.000000 431.000000"
 preserveAspectRatio="xMidYMid meet">

<g transform="translate(0.000000,431.000000) scale(0.100000,-0.100000)"
fill="#000000" stroke="none">
<path d="M10575 4299 c-129 -15 -271 -55 -374 -105 -127 -62 -242 -173 -296
-285 -108 -228 -78 -507 74 -696 83 -103 245 -206 466 -298 330 -136 458 -249
441 -389 -10 -90 -73 -152 -191 -189 -58 -18 -93 -22 -205 -21 -208 0 -376 50
-538 158 -42 28 -83 55 -89 59 -10 6 -13 -46 -13 -251 l0 -259 68 -26 c170
-65 292 -87 523 -94 294 -9 488 24 661 114 225 115 338 307 338 573 0 184 -50
317 -165 438 -103 110 -204 171 -495 299 -183 80 -263 128 -322 191 -72 77
-85 161 -36 240 103 168 510 183 818 29 47 -23 88 -43 93 -45 4 -2 7 105 7
237 l0 240 -77 24 c-43 14 -121 32 -173 41 -114 20 -404 29 -515 15z"/>
<path d="M2420 4190 c-1290 -54 -2355 -99 -2368 -101 -17 -3 205 -148 874
-569 493 -311 900 -564 903 -563 6 2 3029 1293 3086 1318 28 12 23 13 -60 13
-49 0 -1145 -44 -2435 -98z"/>
<path d="M5770 3105 l0 -1165 260 0 260 0 0 450 0 450 380 0 380 0 0 215 0
215 -380 0 -380 0 0 285 0 285 415 0 415 0 0 215 0 215 -675 0 -675 0 0 -1165z"/>
<path d="M7500 3105 l0 -1166 533 4 c499 3 538 5 622 25 240 56 412 144 565
288 166 157 271 347 321 584 29 137 32 433 6 577 -89 479 -373 744 -889 829
-85 14 -195 18 -630 21 l-528 5 0 -1167z m1040 706 c278 -82 439 -284 470
-590 30 -299 -71 -575 -263 -718 -139 -103 -247 -132 -519 -140 l-198 -6 0
743 0 742 218 -5 c185 -4 228 -8 292 -26z"/>
<path d="M4015 3599 c-760 -335 -1325 -580 -1700 -736 -165 -69 -304 -129
-309 -133 -10 -10 72 -2653 82 -2682 5 -12 369 533 1257 1883 1248 1897 1269
1929 1263 1929 -2 -1 -268 -118 -593 -261z"/>
</g>
</svg>
